<svg width="136" height="48" viewBox="0 0 136 48" fill="none" xmlns="http://www.w3.org/2000/svg">
<path d="M10.7665 24.8389L24.7074 24.8389V31.6729L4 31.6729L10.7665 24.8389Z" fill="url(#paint0_linear_180_484)"/>
<path opacity="0.15" d="M22.3592 24.8389L24.7067 24.8389V31.6729L15.5928 31.6729L22.3592 24.8389Z" fill="white"/>
<path d="M17.9429 40.0001L35.9157 21.9651C38.4132 19.459 36.6455 15.1721 33.1146 15.1721L8.31738 40.0001L17.9429 40.0001Z" fill="url(#paint1_linear_180_484)"/>
<path opacity="0.05" d="M34.937 22.9395L35.9131 21.9612C38.4108 19.4583 36.6454 15.1729 33.1166 15.1729L25.3114 22.9395L34.937 22.9395Z" fill="black"/>
<path d="M12.4188 15.1721L33.039 15.1722C36.6024 15.1722 38.3927 19.4753 35.881 22.0029L5.65234 22.0062L12.4188 15.1721Z" fill="url(#paint2_linear_180_484)"/>
<path d="M43.9998 12.855C43.9998 14.984 42.2864 16.7099 40.1727 16.7099C38.0591 16.7099 36.3457 14.984 36.3457 12.855C36.3457 10.7259 38.0591 9 40.1727 9C42.2864 9 43.9998 10.7259 43.9998 12.855Z" fill="url(#paint3_radial_180_484)"/>
<path d="M43.9998 12.855C43.9998 14.984 42.2864 16.7099 40.1727 16.7099C38.0591 16.7099 36.3457 14.984 36.3457 12.855C36.3457 10.7259 38.0591 9 40.1727 9C42.2864 9 43.9998 10.7259 43.9998 12.855Z" fill="url(#paint4_radial_180_484)" fill-opacity="0.6"/>
<path d="M43.9998 12.855C43.9998 14.984 42.2864 16.7099 40.1727 16.7099C38.0591 16.7099 36.3457 14.984 36.3457 12.855C36.3457 10.7259 38.0591 9 40.1727 9C42.2864 9 43.9998 10.7259 43.9998 12.855Z" fill="url(#paint5_radial_180_484)" fill-opacity="0.5"/>
<path d="M49.68 33V15.72H60.084V18.612H52.572V22.92H58.644V25.8H52.572V33H49.68ZM62.4825 18.072V15.42H65.3745V18.072H62.4825ZM62.4825 33V20.04H65.3745V33H62.4825ZM74.8611 33.36C73.5491 33.36 72.3971 33.076 71.4051 32.508C70.4131 31.94 69.6371 31.152 69.0771 30.144C68.5251 29.136 68.2491 27.976 68.2491 26.664C68.2491 25.248 68.5211 24.02 69.0651 22.98C69.6091 21.932 70.3651 21.12 71.3331 20.544C72.3011 19.968 73.4211 19.68 74.6931 19.68C76.0371 19.68 77.1771 19.996 78.1131 20.628C79.0571 21.252 79.7571 22.136 80.2131 23.28C80.6691 24.424 80.8411 25.772 80.7291 27.324H77.8611V26.268C77.8531 24.86 77.6051 23.832 77.1171 23.184C76.6291 22.536 75.8611 22.212 74.8131 22.212C73.6291 22.212 72.7491 22.58 72.1731 23.316C71.5971 24.044 71.3091 25.112 71.3091 26.52C71.3091 27.832 71.5971 28.848 72.1731 29.568C72.7491 30.288 73.5891 30.648 74.6931 30.648C75.4051 30.648 76.0171 30.492 76.5291 30.18C77.0491 29.86 77.4491 29.4 77.7291 28.8L80.5851 29.664C80.0891 30.832 79.3211 31.74 78.2811 32.388C77.2491 33.036 76.1091 33.36 74.8611 33.36ZM70.3971 27.324V25.14H79.3131V27.324H70.3971ZM83.6466 33V15.36H86.5386V33H83.6466ZM95.3291 33.36C94.1371 33.36 93.0971 33.06 92.2091 32.46C91.3211 31.86 90.6331 31.044 90.1451 30.012C89.6571 28.98 89.4131 27.816 89.4131 26.52C89.4131 25.208 89.6571 24.04 90.1451 23.016C90.6411 21.984 91.3411 21.172 92.2451 20.58C93.1491 19.98 94.2131 19.68 95.4371 19.68C96.6691 19.68 97.7011 19.98 98.5331 20.58C99.3731 21.172 100.009 21.984 100.441 23.016C100.873 24.048 101.089 25.216 101.089 26.52C101.089 27.808 100.873 28.972 100.441 30.012C100.009 31.044 99.3651 31.86 98.5091 32.46C97.6531 33.06 96.5931 33.36 95.3291 33.36ZM95.7731 30.768C96.5491 30.768 97.1731 30.592 97.6451 30.24C98.1251 29.88 98.4731 29.38 98.6891 28.74C98.9131 28.1 99.0251 27.36 99.0251 26.52C99.0251 25.672 98.9131 24.932 98.6891 24.3C98.4731 23.66 98.1331 23.164 97.6691 22.812C97.2051 22.452 96.6051 22.272 95.8691 22.272C95.0931 22.272 94.4531 22.464 93.9491 22.848C93.4451 23.224 93.0731 23.736 92.8331 24.384C92.5931 25.024 92.4731 25.736 92.4731 26.52C92.4731 27.312 92.5891 28.032 92.8211 28.68C93.0611 29.32 93.4251 29.828 93.9131 30.204C94.4011 30.58 95.0211 30.768 95.7731 30.768ZM99.0251 33V23.904H98.6651V15.72H101.581V33H99.0251ZM111.906 33.36C110.53 33.36 109.318 33.08 108.27 32.52C107.23 31.96 106.414 31.172 105.822 30.156C105.238 29.14 104.946 27.948 104.946 26.58V15.744L107.874 15.72V26.508C107.874 27.156 107.982 27.736 108.198 28.248C108.422 28.76 108.722 29.196 109.098 29.556C109.474 29.908 109.906 30.176 110.394 30.36C110.882 30.544 111.386 30.636 111.906 30.636C112.442 30.636 112.95 30.544 113.43 30.36C113.918 30.168 114.35 29.896 114.726 29.544C115.102 29.184 115.398 28.748 115.614 28.236C115.83 27.724 115.938 27.148 115.938 26.508V15.72H118.866V26.58C118.866 27.948 118.57 29.14 117.978 30.156C117.394 31.172 116.578 31.96 115.53 32.52C114.49 33.08 113.282 33.36 111.906 33.36ZM128.447 33.36C127.183 33.36 126.123 33.06 125.267 32.46C124.411 31.86 123.767 31.044 123.335 30.012C122.903 28.972 122.687 27.808 122.687 26.52C122.687 25.216 122.903 24.048 123.335 23.016C123.767 21.984 124.399 21.172 125.231 20.58C126.071 19.98 127.107 19.68 128.339 19.68C129.563 19.68 130.623 19.98 131.519 20.58C132.423 21.172 133.123 21.984 133.619 23.016C134.115 24.04 134.363 25.208 134.363 26.52C134.363 27.816 134.119 28.98 133.631 30.012C133.143 31.044 132.455 31.86 131.567 32.46C130.679 33.06 129.639 33.36 128.447 33.36ZM122.195 38.76V20.04H124.751V29.136H125.111V38.76H122.195ZM128.003 30.768C128.755 30.768 129.375 30.58 129.863 30.204C130.351 29.828 130.711 29.32 130.943 28.68C131.183 28.032 131.303 27.312 131.303 26.52C131.303 25.736 131.183 25.024 130.943 24.384C130.703 23.736 130.331 23.224 129.827 22.848C129.323 22.464 128.683 22.272 127.907 22.272C127.171 22.272 126.571 22.452 126.107 22.812C125.643 23.164 125.299 23.66 125.075 24.3C124.859 24.932 124.751 25.672 124.751 26.52C124.751 27.36 124.859 28.1 125.075 28.74C125.299 29.38 125.647 29.88 126.119 30.24C126.599 30.592 127.227 30.768 128.003 30.768Z" fill="url(#paint6_linear_180_484)"/>
<defs>
<linearGradient id="paint0_linear_180_484" x1="4" y1="28.2559" x2="22.9584" y2="28.2559" gradientUnits="userSpaceOnUse">
<stop stop-color="#4EAD8D"/>
<stop offset="1" stop-color="#CEF445"/>
</linearGradient>
<linearGradient id="paint1_linear_180_484" x1="9.08652" y1="44.0678" x2="40.402" y2="12.8795" gradientUnits="userSpaceOnUse">
<stop stop-color="#CEF445"/>
<stop offset="1" stop-color="#4EAD8D"/>
</linearGradient>
<linearGradient id="paint2_linear_180_484" x1="5.65234" y1="18.5892" x2="42.6689" y2="18.5892" gradientUnits="userSpaceOnUse">
<stop stop-color="#4EAD8D"/>
<stop offset="1" stop-color="#CEF445"/>
</linearGradient>
<radialGradient id="paint3_radial_180_484" cx="0" cy="0" r="1" gradientTransform="matrix(9.21903 10.7341 -10.6563 9.22706 38.1405 9.91783)" gradientUnits="userSpaceOnUse">
<stop offset="0.217515" stop-color="#359ACA"/>
<stop offset="1" stop-color="#1D4F80"/>
</radialGradient>
<radialGradient id="paint4_radial_180_484" cx="0" cy="0" r="1" gradientTransform="matrix(-7.84788 5.1376 -3.89836 -6.00358 43.4133 10.7013)" gradientUnits="userSpaceOnUse">
<stop offset="0.721691" stop-opacity="0"/>
<stop offset="1"/>
</radialGradient>
<radialGradient id="paint5_radial_180_484" cx="0" cy="0" r="1" gradientTransform="matrix(-7.33509 6.96206 -7.95152 -8.44605 44.7733 8.6754)" gradientUnits="userSpaceOnUse">
<stop stop-color="white"/>
<stop offset="0.468992" stop-color="white" stop-opacity="0"/>
</radialGradient>
<linearGradient id="paint6_linear_180_484" x1="92" y1="6" x2="92" y2="42" gradientUnits="userSpaceOnUse">
<stop stop-color="#5F7D17"/>
<stop offset="1" stop-color="#3C8669"/>
</linearGradient>
</defs>
</svg>
