<svg width="48" height="48" viewBox="0 0 48 48" fill="none" xmlns="http://www.w3.org/2000/svg">
<g clip-path="url(#clip0_179_472)">
<path d="M10.7665 24.8389L24.7074 24.8389V31.6729L4 31.6729L10.7665 24.8389Z" fill="url(#paint0_linear_179_472)"/>
<path opacity="0.15" d="M22.3592 24.8389L24.7067 24.8389V31.6729L15.5928 31.6729L22.3592 24.8389Z" fill="white"/>
<path d="M17.9429 40.0001L35.9157 21.9651C38.4132 19.459 36.6455 15.1721 33.1146 15.1721L8.31738 40.0001L17.9429 40.0001Z" fill="url(#paint1_linear_179_472)"/>
<path opacity="0.05" d="M34.937 22.9395L35.9131 21.9612C38.4108 19.4583 36.6454 15.1729 33.1166 15.1729L25.3114 22.9395L34.937 22.9395Z" fill="black"/>
<path d="M12.4188 15.1721L33.039 15.1722C36.6024 15.1722 38.3927 19.4753 35.881 22.0029L5.65234 22.0062L12.4188 15.1721Z" fill="url(#paint2_linear_179_472)"/>
<path d="M43.9998 12.855C43.9998 14.984 42.2864 16.7099 40.1727 16.7099C38.0591 16.7099 36.3457 14.984 36.3457 12.855C36.3457 10.7259 38.0591 9 40.1727 9C42.2864 9 43.9998 10.7259 43.9998 12.855Z" fill="url(#paint3_radial_179_472)"/>
<path d="M43.9998 12.855C43.9998 14.984 42.2864 16.7099 40.1727 16.7099C38.0591 16.7099 36.3457 14.984 36.3457 12.855C36.3457 10.7259 38.0591 9 40.1727 9C42.2864 9 43.9998 10.7259 43.9998 12.855Z" fill="url(#paint4_radial_179_472)" fill-opacity="0.6"/>
<path d="M43.9998 12.855C43.9998 14.984 42.2864 16.7099 40.1727 16.7099C38.0591 16.7099 36.3457 14.984 36.3457 12.855C36.3457 10.7259 38.0591 9 40.1727 9C42.2864 9 43.9998 10.7259 43.9998 12.855Z" fill="url(#paint5_radial_179_472)" fill-opacity="0.5"/>
</g>
<defs>
<linearGradient id="paint0_linear_179_472" x1="4" y1="28.2559" x2="22.9584" y2="28.2559" gradientUnits="userSpaceOnUse">
<stop stop-color="#4EAD8D"/>
<stop offset="1" stop-color="#CEF445"/>
</linearGradient>
<linearGradient id="paint1_linear_179_472" x1="9.08652" y1="44.0678" x2="40.402" y2="12.8795" gradientUnits="userSpaceOnUse">
<stop stop-color="#CEF445"/>
<stop offset="1" stop-color="#4EAD8D"/>
</linearGradient>
<linearGradient id="paint2_linear_179_472" x1="5.65234" y1="18.5892" x2="42.6689" y2="18.5892" gradientUnits="userSpaceOnUse">
<stop stop-color="#4EAD8D"/>
<stop offset="1" stop-color="#CEF445"/>
</linearGradient>
<radialGradient id="paint3_radial_179_472" cx="0" cy="0" r="1" gradientTransform="matrix(9.21903 10.7341 -10.6563 9.22706 38.1405 9.91783)" gradientUnits="userSpaceOnUse">
<stop offset="0.217515" stop-color="#359ACA"/>
<stop offset="1" stop-color="#1D4F80"/>
</radialGradient>
<radialGradient id="paint4_radial_179_472" cx="0" cy="0" r="1" gradientTransform="matrix(-7.84788 5.1376 -3.89836 -6.00358 43.4133 10.7013)" gradientUnits="userSpaceOnUse">
<stop offset="0.721691" stop-opacity="0"/>
<stop offset="1"/>
</radialGradient>
<radialGradient id="paint5_radial_179_472" cx="0" cy="0" r="1" gradientTransform="matrix(-7.33509 6.96206 -7.95152 -8.44605 44.7733 8.6754)" gradientUnits="userSpaceOnUse">
<stop stop-color="white"/>
<stop offset="0.468992" stop-color="white" stop-opacity="0"/>
</radialGradient>
<clipPath id="clip0_179_472">
<rect width="48" height="48" fill="white"/>
</clipPath>
</defs>
</svg>
